<svg width="27" height="26" viewBox="0 0 27 26" fill="none" xmlns="http://www.w3.org/2000/svg">
<path d="M13.9514 7.72492C13.2586 7.72492 12.5727 7.86136 11.9327 8.12646C11.2927 8.39156 10.7111 8.78012 10.2213 9.26995C9.73147 9.75979 9.34291 10.3413 9.07782 10.9813C8.81272 11.6213 8.67627 12.3073 8.67627 13C8.67627 13.6927 8.81272 14.3787 9.07782 15.0187C9.34291 15.6587 9.73147 16.2402 10.2213 16.73C10.7111 17.2199 11.2927 17.6084 11.9327 17.8735C12.5727 18.1386 13.2586 18.2751 13.9514 18.2751C15.3504 18.2751 16.6921 17.7193 17.6814 16.73C18.6707 15.7408 19.2264 14.399 19.2264 13C19.2264 11.601 18.6707 10.2592 17.6814 9.26995C16.6921 8.28069 15.3504 7.72492 13.9514 7.72492ZM10.3014 13C10.3014 12.032 10.6859 11.1036 11.3704 10.4191C12.0549 9.73457 12.9833 9.35002 13.9514 9.35002C14.9194 9.35002 15.8478 9.73457 16.5323 10.4191C17.2168 11.1036 17.6013 12.032 17.6013 13C17.6013 13.968 17.2168 14.8964 16.5323 15.5809C15.8478 16.2654 14.9194 16.65 13.9514 16.65C12.9833 16.65 12.0549 16.2654 11.3704 15.5809C10.6859 14.8964 10.3014 13.968 10.3014 13Z" fill="#E6E6E6"/>
<path d="M16.87 2.1817C16.0136 -0.727233 11.8891 -0.727233 11.0327 2.1817L10.8799 2.70011C10.8201 2.90317 10.7156 3.09027 10.5741 3.2477C10.4326 3.40513 10.2576 3.52889 10.0621 3.60992C9.8665 3.69095 9.65529 3.72719 9.4439 3.71599C9.23251 3.70478 9.02631 3.64641 8.84041 3.54516L8.36588 3.28514C5.70071 1.83555 2.78691 4.75098 4.23812 7.41453L4.49651 7.88905C4.59777 8.07495 4.65613 8.28116 4.66734 8.49254C4.67855 8.70393 4.64231 8.91515 4.56128 9.11071C4.48025 9.30627 4.35648 9.48123 4.19905 9.62274C4.04162 9.76426 3.85452 9.86875 3.65146 9.92856L3.13305 10.0813C0.224122 10.9377 0.224122 15.0623 3.13305 15.9187L3.65146 16.0714C3.85452 16.1313 4.04162 16.2357 4.19905 16.3773C4.35648 16.5188 4.48025 16.6937 4.56128 16.8893C4.64231 17.0849 4.67855 17.2961 4.66734 17.5075C4.65613 17.7188 4.59777 17.925 4.49651 18.1109L4.2365 18.5855C2.78691 21.2506 5.70071 24.1661 8.36588 22.7132L8.84041 22.4548C9.02631 22.3536 9.23251 22.2952 9.4439 22.284C9.65529 22.2728 9.8665 22.309 10.0621 22.3901C10.2576 22.4711 10.4326 22.5949 10.5741 22.7523C10.7156 22.9097 10.8201 23.0968 10.8799 23.2999L11.0327 23.8183C11.8891 26.7272 16.0136 26.7272 16.87 23.8183L17.0228 23.2999C17.0826 23.0968 17.1871 22.9097 17.3286 22.7523C17.4701 22.5949 17.6451 22.4711 17.8406 22.3901C18.0362 22.309 18.2474 22.2728 18.4588 22.284C18.6702 22.2952 18.8764 22.3536 19.0623 22.4548L19.5368 22.7149C22.202 24.1661 25.1174 21.249 23.6646 18.5855L23.4062 18.1109C23.3049 17.925 23.2466 17.7188 23.2354 17.5075C23.2242 17.2961 23.2604 17.0849 23.3414 16.8893C23.4225 16.6937 23.5462 16.5188 23.7037 16.3773C23.8611 16.2357 24.0482 16.1313 24.2512 16.0714L24.7697 15.9187C27.6786 15.0623 27.6786 10.9377 24.7697 10.0813L24.2512 9.92856C24.0482 9.86875 23.8611 9.76426 23.7037 9.62274C23.5462 9.48123 23.4225 9.30627 23.3414 9.11071C23.2604 8.91515 23.2242 8.70393 23.2354 8.49254C23.2466 8.28116 23.3049 8.07495 23.4062 7.88905L23.6662 7.41453C25.1174 4.74936 22.2004 1.83555 19.5368 3.28677L19.0623 3.54516C18.8764 3.64641 18.6702 3.70478 18.4588 3.71599C18.2474 3.72719 18.0362 3.69095 17.8406 3.60992C17.6451 3.52889 17.4701 3.40513 17.3286 3.2477C17.1871 3.09027 17.0826 2.90317 17.0228 2.70011L16.87 2.1817ZM12.5911 2.6416C12.9909 1.28464 14.9118 1.28464 15.3116 2.6416L15.4643 3.16001C15.5927 3.59568 15.817 3.99708 16.1207 4.33479C16.4245 4.67251 16.7999 4.93797 17.2196 5.11172C17.6392 5.28547 18.0924 5.36311 18.546 5.33893C18.9995 5.31475 19.4419 5.18938 19.8407 4.972L20.3136 4.71198C21.5552 4.03756 22.9138 5.39452 22.2377 6.63773L21.9794 7.11226C21.7623 7.5111 21.6372 7.95345 21.6133 8.4069C21.5894 8.86035 21.6672 9.31341 21.8411 9.73287C22.015 10.1523 22.2806 10.5276 22.6183 10.8311C22.956 11.1346 23.3574 11.3587 23.793 11.487L24.3097 11.6398C25.6667 12.0396 25.6667 13.9604 24.3097 14.3602L23.7913 14.513C23.3557 14.6414 22.9543 14.8657 22.6166 15.1694C22.2788 15.4731 22.0134 15.8486 21.8396 16.2682C21.6659 16.6879 21.5882 17.1411 21.6124 17.5946C21.6366 18.0482 21.762 18.4906 21.9794 18.8894L22.2394 19.3623C22.9138 20.6038 21.5568 21.9624 20.3136 21.2864L19.8407 21.028C19.4418 20.8106 18.9993 20.6853 18.5457 20.6613C18.092 20.6372 17.6388 20.715 17.2191 20.8889C16.7994 21.0628 16.424 21.3284 16.1203 21.6663C15.8167 22.0042 15.5926 22.4058 15.4643 22.8416L15.3116 23.3584C14.9118 24.7154 12.9909 24.7154 12.5911 23.3584L12.4384 22.84C12.3099 22.4046 12.0857 22.0034 11.7821 21.6658C11.4785 21.3283 11.1032 21.0629 10.6837 20.8892C10.2643 20.7155 9.81131 20.6378 9.35795 20.6618C8.90459 20.6858 8.46235 20.8109 8.06361 21.028L7.58908 21.288C6.3475 21.9624 4.98892 20.6055 5.66496 19.3623L5.92335 18.8894C6.14104 18.4905 6.26666 18.048 6.29099 17.5942C6.31533 17.1405 6.23777 16.687 6.064 16.2672C5.89022 15.8473 5.62465 15.4717 5.28677 15.1679C4.94888 14.864 4.54726 14.6397 4.11136 14.5113L3.59296 14.3586C2.236 13.9588 2.236 12.0379 3.59296 11.6382L4.11136 11.4854C4.54658 11.3569 4.94754 11.1327 5.28492 10.8292C5.62229 10.5257 5.88754 10.1506 6.06125 9.73136C6.23495 9.31213 6.31272 8.85936 6.28886 8.40619C6.26501 7.95303 6.14012 7.51093 5.92335 7.11226L5.66334 6.63773C4.98892 5.39615 6.34588 4.03756 7.58908 4.71361L8.06361 4.972C8.46235 5.18907 8.90459 5.3142 9.35795 5.33822C9.81131 5.36224 10.2643 5.28454 10.6837 5.11081C11.1032 4.93708 11.4785 4.67172 11.7821 4.33418C12.0857 3.99663 12.3099 3.59545 12.4384 3.16001L12.5911 2.6416Z" fill="#E6E6E6"/>
</svg>
