<svg width="32" height="30" viewBox="0 0 32 30" fill="none" xmlns="http://www.w3.org/2000/svg">
<path fill-rule="evenodd" clip-rule="evenodd" d="M3.19621 26.1825V12.3381H5.32612V26.1825C5.32612 26.465 5.43832 26.7359 5.63804 26.9356C5.83776 27.1353 6.10863 27.2475 6.39108 27.2475H25.5603C25.8427 27.2475 26.1136 27.1353 26.3133 26.9356C26.513 26.7359 26.6252 26.465 26.6252 26.1825V12.3381H28.7551V26.1825C28.7551 27.0299 28.4185 27.8425 27.8194 28.4417C27.2202 29.0408 26.4076 29.3774 25.5603 29.3774H6.39108C5.54375 29.3774 4.73112 29.0408 4.13197 28.4417C3.53281 27.8425 3.19621 27.0299 3.19621 26.1825ZM26.6252 2.75352V10.2082L22.3654 5.94839V2.75352C22.3654 2.47108 22.4776 2.2002 22.6773 2.00048C22.877 1.80076 23.1479 1.68856 23.4304 1.68856H25.5603C25.8427 1.68856 26.1136 1.80076 26.3133 2.00048C26.513 2.2002 26.6252 2.47108 26.6252 2.75352Z" fill="url(#paint0_linear_33_226)"/>
<path fill-rule="evenodd" clip-rule="evenodd" d="M14.4698 0.623609C14.8692 0.224312 15.4109 0 15.9757 0C16.5405 0 17.0821 0.224312 17.4815 0.623609L31.639 14.779C31.839 14.979 31.9513 15.2502 31.9513 15.533C31.9513 15.8158 31.839 16.087 31.639 16.287C31.4391 16.4869 31.1679 16.5993 30.885 16.5993C30.6022 16.5993 30.331 16.4869 30.1311 16.287L15.9757 2.12946L1.82029 16.287C1.62032 16.4869 1.3491 16.5993 1.0663 16.5993C0.7835 16.5993 0.512282 16.4869 0.312312 16.287C0.112342 16.087 0 15.8158 0 15.533C0 15.2502 0.112342 14.979 0.312312 14.779L14.4698 0.623609Z" fill="url(#paint1_linear_33_226)"/>
<defs>
<linearGradient id="paint0_linear_33_226" x1="15.9757" y1="0" x2="15.9757" y2="29.3774" gradientUnits="userSpaceOnUse">
<stop stop-color="#DC207E"/>
<stop offset="1" stop-color="#5B03FF"/>
</linearGradient>
<linearGradient id="paint1_linear_33_226" x1="15.9757" y1="0" x2="15.9757" y2="29.3774" gradientUnits="userSpaceOnUse">
<stop stop-color="#DC207E"/>
<stop offset="1" stop-color="#5B03FF"/>
</linearGradient>
</defs>
</svg>
