<svg width="20" height="20" viewBox="0 0 20 20" fill="none" xmlns="http://www.w3.org/2000/svg">
<path d="M1.875 1.25C1.70924 1.25 1.55027 1.31585 1.43306 1.43306C1.31585 1.55027 1.25 1.70924 1.25 1.875V5.625C1.25 5.79076 1.18415 5.94973 1.06694 6.06694C0.949732 6.18415 0.79076 6.25 0.625 6.25C0.45924 6.25 0.300269 6.18415 0.183058 6.06694C0.065848 5.94973 0 5.79076 0 5.625V1.875C0 1.37772 0.197544 0.900806 0.549175 0.549175C0.900806 0.197544 1.37772 0 1.875 0L5.625 0C5.79076 0 5.94973 0.065848 6.06694 0.183058C6.18415 0.300269 6.25 0.45924 6.25 0.625C6.25 0.79076 6.18415 0.949732 6.06694 1.06694C5.94973 1.18415 5.79076 1.25 5.625 1.25H1.875ZM13.75 0.625C13.75 0.45924 13.8158 0.300269 13.9331 0.183058C14.0503 0.065848 14.2092 0 14.375 0L18.125 0C18.6223 0 19.0992 0.197544 19.4508 0.549175C19.8025 0.900806 20 1.37772 20 1.875V5.625C20 5.79076 19.9342 5.94973 19.8169 6.06694C19.6997 6.18415 19.5408 6.25 19.375 6.25C19.2092 6.25 19.0503 6.18415 18.9331 6.06694C18.8158 5.94973 18.75 5.79076 18.75 5.625V1.875C18.75 1.70924 18.6842 1.55027 18.5669 1.43306C18.4497 1.31585 18.2908 1.25 18.125 1.25H14.375C14.2092 1.25 14.0503 1.18415 13.9331 1.06694C13.8158 0.949732 13.75 0.79076 13.75 0.625ZM0.625 13.75C0.79076 13.75 0.949732 13.8158 1.06694 13.9331C1.18415 14.0503 1.25 14.2092 1.25 14.375V18.125C1.25 18.2908 1.31585 18.4497 1.43306 18.5669C1.55027 18.6842 1.70924 18.75 1.875 18.75H5.625C5.79076 18.75 5.94973 18.8158 6.06694 18.9331C6.18415 19.0503 6.25 19.2092 6.25 19.375C6.25 19.5408 6.18415 19.6997 6.06694 19.8169C5.94973 19.9342 5.79076 20 5.625 20H1.875C1.37772 20 0.900806 19.8025 0.549175 19.4508C0.197544 19.0992 0 18.6223 0 18.125L0 14.375C0 14.2092 0.065848 14.0503 0.183058 13.9331C0.300269 13.8158 0.45924 13.75 0.625 13.75ZM19.375 13.75C19.5408 13.75 19.6997 13.8158 19.8169 13.9331C19.9342 14.0503 20 14.2092 20 14.375V18.125C20 18.6223 19.8025 19.0992 19.4508 19.4508C19.0992 19.8025 18.6223 20 18.125 20H14.375C14.2092 20 14.0503 19.9342 13.9331 19.8169C13.8158 19.6997 13.75 19.5408 13.75 19.375C13.75 19.2092 13.8158 19.0503 13.9331 18.9331C14.0503 18.8158 14.2092 18.75 14.375 18.75H18.125C18.2908 18.75 18.4497 18.6842 18.5669 18.5669C18.6842 18.4497 18.75 18.2908 18.75 18.125V14.375C18.75 14.2092 18.8158 14.0503 18.9331 13.9331C19.0503 13.8158 19.2092 13.75 19.375 13.75ZM3.75 5.625C3.75 5.45924 3.81585 5.30027 3.93306 5.18306C4.05027 5.06585 4.20924 5 4.375 5C4.54076 5 4.69973 5.06585 4.81694 5.18306C4.93415 5.30027 5 5.45924 5 5.625V14.375C5 14.5408 4.93415 14.6997 4.81694 14.8169C4.69973 14.9342 4.54076 15 4.375 15C4.20924 15 4.05027 14.9342 3.93306 14.8169C3.81585 14.6997 3.75 14.5408 3.75 14.375V5.625ZM6.25 5.625C6.25 5.45924 6.31585 5.30027 6.43306 5.18306C6.55027 5.06585 6.70924 5 6.875 5C7.04076 5 7.19973 5.06585 7.31694 5.18306C7.43415 5.30027 7.5 5.45924 7.5 5.625V14.375C7.5 14.5408 7.43415 14.6997 7.31694 14.8169C7.19973 14.9342 7.04076 15 6.875 15C6.70924 15 6.55027 14.9342 6.43306 14.8169C6.31585 14.6997 6.25 14.5408 6.25 14.375V5.625ZM8.75 5.625C8.75 5.45924 8.81585 5.30027 8.93306 5.18306C9.05027 5.06585 9.20924 5 9.375 5C9.54076 5 9.69973 5.06585 9.81694 5.18306C9.93415 5.30027 10 5.45924 10 5.625V14.375C10 14.5408 9.93415 14.6997 9.81694 14.8169C9.69973 14.9342 9.54076 15 9.375 15C9.20924 15 9.05027 14.9342 8.93306 14.8169C8.81585 14.6997 8.75 14.5408 8.75 14.375V5.625ZM11.25 5.625C11.25 5.45924 11.3158 5.30027 11.4331 5.18306C11.5503 5.06585 11.7092 5 11.875 5H13.125C13.2908 5 13.4497 5.06585 13.5669 5.18306C13.6842 5.30027 13.75 5.45924 13.75 5.625V14.375C13.75 14.5408 13.6842 14.6997 13.5669 14.8169C13.4497 14.9342 13.2908 15 13.125 15H11.875C11.7092 15 11.5503 14.9342 11.4331 14.8169C11.3158 14.6997 11.25 14.5408 11.25 14.375V5.625ZM15 5.625C15 5.45924 15.0658 5.30027 15.1831 5.18306C15.3003 5.06585 15.4592 5 15.625 5C15.7908 5 15.9497 5.06585 16.0669 5.18306C16.1842 5.30027 16.25 5.45924 16.25 5.625V14.375C16.25 14.5408 16.1842 14.6997 16.0669 14.8169C15.9497 14.9342 15.7908 15 15.625 15C15.4592 15 15.3003 14.9342 15.1831 14.8169C15.0658 14.6997 15 14.5408 15 14.375V5.625Z" fill="#D3D3D3"/>
</svg>
