<svg width="20" height="18" viewBox="0 0 20 18" fill="none" xmlns="http://www.w3.org/2000/svg">
<path d="M19.375 6.25C19.2092 6.25 19.0503 6.18415 18.9331 6.06694C18.8158 5.94973 18.75 5.79076 18.75 5.625L18.75 2.5C18.75 2.16848 18.6183 1.85054 18.3839 1.61612C18.1495 1.3817 17.8315 1.25 17.5 1.25L2.5 1.25C2.16848 1.25 1.85054 1.38169 1.61612 1.61611C1.3817 1.85053 1.25 2.16848 1.25 2.5L1.25 5.625C1.25 5.79076 1.18415 5.94973 1.06694 6.06694C0.949733 6.18415 0.790761 6.25 0.625001 6.25C0.459241 6.25 0.300269 6.18415 0.183059 6.06694C0.0658484 5.94973 1.01273e-06 5.79076 1.02722e-06 5.625L1.30041e-06 2.5C1.35838e-06 1.83696 0.263395 1.20107 0.732235 0.732231C1.20108 0.26339 1.83696 -1.58786e-06 2.5 -1.5299e-06L17.5 -2.18557e-07C18.163 -1.60592e-07 18.7989 0.263391 19.2678 0.732233C19.7366 1.20107 20 1.83696 20 2.5L20 5.625C20 5.79076 19.9342 5.94973 19.8169 6.06694C19.6997 6.18415 19.5408 6.25 19.375 6.25Z" fill="#D3D3D3"/>
<path d="M10.4425 3.8075C10.3844 3.74929 10.3155 3.70312 10.2395 3.67161C10.1636 3.6401 10.0822 3.62388 10 3.62388C9.91779 3.62388 9.83639 3.6401 9.76046 3.67161C9.68453 3.70312 9.61556 3.74929 9.5575 3.8075L5.8075 7.5575C5.69014 7.67486 5.62421 7.83403 5.62421 8C5.62421 8.16597 5.69014 8.32514 5.8075 8.4425C5.92486 8.55986 6.08403 8.62579 6.25 8.62579C6.41597 8.62579 6.57514 8.55986 6.6925 8.4425L9.375 5.75875L9.375 16.75C9.375 16.9158 9.44085 17.0747 9.55806 17.1919C9.67527 17.3092 9.83424 17.375 10 17.375C10.1658 17.375 10.3247 17.3092 10.4419 17.1919C10.5592 17.0747 10.625 16.9158 10.625 16.75L10.625 5.75875L13.3075 8.4425C13.4249 8.55986 13.584 8.62579 13.75 8.62579C13.916 8.62579 14.0751 8.55986 14.1925 8.4425C14.3099 8.32514 14.3758 8.16597 14.3758 8C14.3758 7.83403 14.3099 7.67486 14.1925 7.5575L10.4425 3.8075Z" fill="#D3D3D3"/>
</svg>
