<svg width="27" height="20" viewBox="0 0 27 20" fill="none" xmlns="http://www.w3.org/2000/svg">
<path d="M0.951355 3.25C0.951355 2.38805 1.29376 1.5614 1.90326 0.951903C2.51275 0.34241 3.3394 0 4.20135 0H23.7014C24.5633 0 25.39 0.34241 25.9994 0.951903C26.6089 1.5614 26.9514 2.38805 26.9514 3.25V16.25C26.9514 17.112 26.6089 17.9386 25.9994 18.5481C25.39 19.1576 24.5633 19.5 23.7014 19.5H4.20135C3.3394 19.5 2.51275 19.1576 1.90326 18.5481C1.29376 17.9386 0.951355 17.112 0.951355 16.25V3.25ZM4.20135 1.625C3.77038 1.625 3.35705 1.7962 3.05231 2.10095C2.74756 2.4057 2.57635 2.81902 2.57635 3.25V4.875H25.3264V3.25C25.3264 2.81902 25.1551 2.4057 24.8504 2.10095C24.5457 1.7962 24.1323 1.625 23.7014 1.625H4.20135ZM25.3264 8.125H2.57635V16.25C2.57635 16.681 2.74756 17.0943 3.05231 17.399C3.35705 17.7038 3.77038 17.875 4.20135 17.875H23.7014C24.1323 17.875 24.5457 17.7038 24.8504 17.399C25.1551 17.0943 25.3264 16.681 25.3264 16.25V8.125Z" fill="#E6E6E6"/>
<path d="M4.20135 13C4.20135 12.569 4.37256 12.1557 4.67731 11.851C4.98205 11.5462 5.39538 11.375 5.82635 11.375H7.45135C7.88233 11.375 8.29566 11.5462 8.6004 11.851C8.90515 12.1557 9.07635 12.569 9.07635 13V14.625C9.07635 15.056 8.90515 15.4693 8.6004 15.774C8.29566 16.0788 7.88233 16.25 7.45135 16.25H5.82635C5.39538 16.25 4.98205 16.0788 4.67731 15.774C4.37256 15.4693 4.20135 15.056 4.20135 14.625V13Z" fill="#E6E6E6"/>
</svg>
